<svg width="15" height="15" viewBox="0 0 15 15" fill="none" xmlns="http://www.w3.org/2000/svg">
<path fill-rule="evenodd" clip-rule="evenodd" d="M1.82394 5.32301L3.29804 4.49383L4.38634 6.94251L3.04221 11.4789C3.17788 11.5914 3.32116 11.7003 3.47091 11.8048C4.37846 9.96673 5.15353 9.25004 6.66658 9.25004C8.34766 9.25004 9.78309 10.4113 10.2066 12.0164C10.4283 11.8795 10.6389 11.7323 10.8352 11.5778C10.5806 11.219 10.3726 10.8308 10.1975 10.4049C10.0085 9.94512 9.96039 9.78448 9.68704 8.78971C9.28469 7.32545 8.99097 7.00006 7.66656 7.00006H6.99989C5.96504 7.00006 4.99989 5.91427 4.99989 4.75006C4.99989 3.84432 4.38129 3.15462 2.98995 2.69948L1.82394 5.32301ZM2.94678 7.05761L1.98935 10.2889C1.78268 9.93686 1.66655 9.58309 1.66655 9.25004H0.333216C0.333216 11.8561 3.78824 14.5 6.99988 14.5C10.2115 14.5 13.6665 11.8561 13.6665 9.25004H12.3332C12.3332 9.67166 12.1471 10.1265 11.8268 10.569C11.6637 10.3273 11.527 10.0655 11.4076 9.77523C11.2543 9.40234 11.213 9.26427 10.9609 8.34669C10.8494 7.94111 10.7309 7.58397 10.5965 7.2721C11.5016 6.81603 12.3758 6.93336 13.2967 7.62407L14.0363 6.376C12.6289 5.32042 11.1661 5.21886 9.74798 6.07133C9.25502 5.67711 8.59769 5.50006 7.66656 5.50006H6.99989C6.70142 5.50006 6.33323 5.08584 6.33323 4.75006C6.33323 2.81162 4.96077 1.5764 2.46397 1.01462L1.66656 0.835205V2.32301L0.188721 5.64815L1.53493 7.16263L2.70175 6.50629L2.94678 7.05761ZM4.66532 12.4744C5.40585 12.7995 6.21296 13 6.99988 13C7.65836 13 8.33098 12.8596 8.96689 12.6233C8.78133 11.5741 7.83482 10.75 6.66658 10.75C5.79894 10.75 5.32008 11.1645 4.66532 12.4744Z" fill="#D4DDFE"/>
</svg>
