<svg width="14" height="14" viewBox="0 0 14 14" fill="none" xmlns="http://www.w3.org/2000/svg">
<path fill-rule="evenodd" clip-rule="evenodd" d="M13.6666 12.3333V7.66659H12.3333V12.3333H1.66659V1.66659H6.33325V0.333252H1.66659C0.930206 0.333252 0.333252 0.930206 0.333252 1.66659V12.3333C0.333252 13.0696 0.930206 13.6666 1.66659 13.6666H12.3333C13.0696 13.6666 13.6666 13.0696 13.6666 12.3333ZM11.7853 0.815534C11.4797 0.507532 11.0613 0.333252 10.6248 0.333252C10.1888 0.333252 9.77085 0.507138 9.46351 0.816337L3.88425 6.39553C3.3857 6.83481 3.05888 7.48848 3.00208 8.19145L2.99992 10.3348V11.0015H5.75632C6.51252 10.9496 7.1726 10.6196 7.63826 10.0824L13.1859 4.53714C13.4937 4.22936 13.6666 3.81191 13.6666 3.37664C13.6666 2.94136 13.4937 2.52392 13.1859 2.21613L11.7853 0.815534ZM5.70924 9.6698C6.06539 9.64459 6.39691 9.47884 6.66311 9.17433L10.7044 5.13307L8.86819 3.29677L4.79732 7.36631C4.52722 7.6052 4.36012 7.93941 4.33325 8.24514V9.66855L5.70924 9.6698ZM9.81115 2.35411L11.6472 4.19026L12.2431 3.59433C12.3008 3.5366 12.3333 3.45829 12.3333 3.37664C12.3333 3.29499 12.3008 3.21668 12.2431 3.15894L10.8407 1.75649C10.7836 1.69895 10.7059 1.66659 10.6248 1.66659C10.5438 1.66659 10.4661 1.69895 10.409 1.75649L9.81115 2.35411Z" fill="#D4DDFE"/>
</svg>
