<svg width="16" height="16" viewBox="0 0 16 16" fill="none" xmlns="http://www.w3.org/2000/svg">
<path fill-rule="evenodd" clip-rule="evenodd" d="M8 15.5518L8.43849 15.1689C12.1258 11.9492 14 9.13792 14 6.66675C14 3.16719 11.2686 0.666748 8 0.666748C4.73137 0.666748 2 3.16719 2 6.66675C2 9.13792 3.87421 11.9492 7.56151 15.1689L8 15.5518ZM8 13.7757C4.87107 10.9558 3.33333 8.56624 3.33333 6.66675C3.33333 3.93115 5.44274 2.00008 8 2.00008C10.5573 2.00008 12.6667 3.93115 12.6667 6.66675C12.6667 8.56624 11.1289 10.9558 8 13.7757ZM8 3.33341C9.84095 3.33341 11.3333 4.8258 11.3333 6.66675C11.3333 8.50769 9.84095 10.0001 8 10.0001C6.15906 10.0001 4.66667 8.50769 4.66667 6.66675C4.66667 4.8258 6.15906 3.33341 8 3.33341ZM6 6.66675C6 5.56218 6.89543 4.66675 8 4.66675C9.10457 4.66675 10 5.56218 10 6.66675C10 7.77132 9.10457 8.66675 8 8.66675C6.89543 8.66675 6 7.77132 6 6.66675Z" fill="#FD7A78"/>
</svg>
