<svg width="16" height="16" viewBox="0 0 16 16" fill="none" xmlns="http://www.w3.org/2000/svg">
<path fill-rule="evenodd" clip-rule="evenodd" d="M8.00008 15.3334C3.94999 15.3334 0.666748 12.0502 0.666748 8.00008C0.666748 3.94999 3.94999 0.666748 8.00008 0.666748C12.0502 0.666748 15.3334 3.94999 15.3334 8.00008C15.3334 12.0502 12.0502 15.3334 8.00008 15.3334ZM8.00008 14.0001C11.3138 14.0001 14.0001 11.3138 14.0001 8.00008C14.0001 4.68637 11.3138 2.00008 8.00008 2.00008C4.68637 2.00008 2.00008 4.68637 2.00008 8.00008C2.00008 11.3138 4.68637 14.0001 8.00008 14.0001ZM9.86043 9.86047L11.7208 4.27933L6.13967 6.13971L4.27929 11.7209L9.86043 9.86047ZM8.8064 8.80636L6.38754 9.61264L7.19382 7.19378L9.61268 6.38749L8.8064 8.80636Z" fill="#D4DDFE"/>
</svg>
