<svg width="14" height="14" viewBox="0 0 14 14" fill="none" xmlns="http://www.w3.org/2000/svg">
<path fill-rule="evenodd" clip-rule="evenodd" d="M9.30029 0.93519C10.0083 0.732891 10.7463 1.14288 10.9486 1.85093C10.9827 1.97005 10.9999 2.09333 10.9999 2.21722V3.33339H12.3333C13.0696 3.33339 13.6666 3.93035 13.6666 4.66673V12.6667C13.6666 13.4031 13.0696 14.0001 12.3333 14.0001H1.66659C0.930206 14.0001 0.333252 13.4031 0.333252 12.6667H0.351053C0.339219 12.595 0.333252 12.5224 0.333252 12.4496V4.50294C0.333252 3.90763 0.727888 3.38445 1.30029 3.2209L9.30029 0.93519ZM5.75998 12.6667H12.3333V7.3334H10.9999V10.1639C10.9999 10.7592 10.6053 11.2824 10.0329 11.4459L5.75998 12.6667ZM12.3333 4.66673V6.00006H10.9999V4.66673H12.3333ZM1.66659 4.50292V12.4496L9.66659 10.1638V2.2172L1.66659 4.50292ZM8.33325 6.00006C8.33325 6.36825 8.03477 6.66673 7.66658 6.66673C7.2984 6.66673 6.99992 6.36825 6.99992 6.00006C6.99992 5.63187 7.2984 5.3334 7.66658 5.3334C8.03477 5.3334 8.33325 5.63187 8.33325 6.00006Z" fill="#FD7A78"/>
</svg>
