<svg width="12" height="16" viewBox="0 0 12 16" fill="none" xmlns="http://www.w3.org/2000/svg">
<path fill-rule="evenodd" clip-rule="evenodd" d="M2.66665 5.33342V7.66676L0 9.66675V13.3334L2.66665 13.3334C2.66665 14.0698 3.26361 14.6667 3.99999 14.6667H5.33335V15.3334H6.66668V14.6667H7.99999C8.73637 14.6667 9.33332 14.0698 9.33332 13.3334L12 13.3334V9.66675L9.33332 7.66674V5.33342C9.33332 3.22936 8.05762 0.666748 5.99999 0.666748C3.94236 0.666748 2.66665 3.22936 2.66665 5.33342ZM6.66668 13.3334H8V6.66675V5.33342C8 3.87157 7.06835 2.00008 6 2.00008C4.93165 2.00008 4 3.87157 4 5.33342V6.66675V13.3334H5.33335V9.33341H6.66668V13.3334ZM1.33335 10.3334L2.66668 9.33341V12.0001H1.33335V10.3334ZM9.33335 12.0001V9.33341L10.6667 10.3334V12.0001H9.33335ZM5.99999 7.33342C5.26361 7.33342 4.66665 6.73646 4.66665 6.00008C4.66665 5.2637 5.26361 4.66675 5.99999 4.66675C6.73637 4.66675 7.33332 5.2637 7.33332 6.00008C7.33332 6.73646 6.73637 7.33342 5.99999 7.33342Z" fill="#D4DDFE"/>
</svg>
