<svg width="14" height="14" viewBox="0 0 14 14" fill="none" xmlns="http://www.w3.org/2000/svg">
<path fill-rule="evenodd" clip-rule="evenodd" d="M7.66658 6.93324V11.6666H6.33325V6.93324C4.81176 6.62439 3.66658 5.27922 3.66658 3.66659C3.66658 1.82564 5.15897 0.333252 6.99992 0.333252C8.84087 0.333252 10.3333 1.82564 10.3333 3.66659C10.3333 5.27922 9.18808 6.62439 7.66658 6.93324ZM4.99992 8.4381V9.78948C3.04471 10.0336 1.66659 10.5911 1.66659 10.9999C1.66659 11.5379 4.05268 12.3332 6.99992 12.3332C9.94716 12.3332 12.3333 11.5379 12.3333 10.9999C12.3333 10.5911 10.9551 10.0336 8.99992 9.78948V8.4381C11.7038 8.73438 13.6666 9.64511 13.6666 10.9999C13.6666 12.6711 10.6801 13.6666 6.99992 13.6666C3.31974 13.6666 0.333252 12.6711 0.333252 10.9999C0.333252 9.64511 2.296 8.73438 4.99992 8.4381ZM8.99992 3.66659C8.99992 4.77115 8.10449 5.66658 6.99992 5.66658C5.89535 5.66658 4.99992 4.77115 4.99992 3.66659C4.99992 2.56202 5.89535 1.66659 6.99992 1.66659C8.10449 1.66659 8.99992 2.56202 8.99992 3.66659Z" fill="#FD7A78"/>
</svg>
