<svg width="15" height="16" viewBox="0 0 15 16" fill="none" xmlns="http://www.w3.org/2000/svg">
<path fill-rule="evenodd" clip-rule="evenodd" d="M10.828 0.499756C11.3191 0.499756 11.7898 0.695821 12.1336 1.04232L14.4592 3.36799C14.8055 3.71425 15 4.18388 15 4.67356C15 5.16324 14.8055 5.63287 14.4592 5.97913L5.96813 14.4676C5.44426 15.0719 4.70167 15.4431 3.85095 15.5015H0V14.7515L0.00243573 11.5902C0.0663286 10.7994 0.434 10.064 0.994871 9.56981L9.52153 1.04323C9.86729 0.695378 10.3375 0.499756 10.828 0.499756ZM3.79798 14.0033C4.19865 13.975 4.57161 13.7885 4.87109 13.4459L10.5425 7.77446L7.72677 4.95857L2.02208 10.6619C1.71821 10.9306 1.53023 11.3066 1.5 11.6506V14.0019L3.79798 14.0033ZM8.78756 3.89804L11.6032 6.7138L13.3986 4.91843C13.4635 4.85347 13.5 4.76538 13.5 4.67352C13.5 4.58166 13.4635 4.49357 13.3986 4.42861L11.0708 2.10086C11.0066 2.03612 10.9192 1.99971 10.828 1.99971C10.7368 1.99971 10.6494 2.03612 10.5852 2.10086L8.78756 3.89804Z" fill="#FF4949"/>
</svg>
