<svg width="24" height="24" viewBox="0 0 24 24" fill="none" xmlns="http://www.w3.org/2000/svg">
<rect width="24" height="24" rx="7" fill="#FD7A78"/>
<path fill-rule="evenodd" clip-rule="evenodd" d="M11.3168 9.80333C11.6277 9.3844 11.7392 8.94289 11.3876 8.55317C10.5986 7.44918 10.068 6.76648 9.7352 6.43771C9.10246 5.81267 8.0616 5.89721 7.5136 6.43717C7.21927 6.72719 7.11963 6.82678 6.81741 7.13375C5.13402 8.81805 6.16064 12.3786 8.88976 15.1104C11.6183 17.8416 15.1785 18.8687 16.8654 17.1809C17.1443 16.912 17.3804 16.6758 17.5666 16.479C18.1036 15.9114 18.1852 14.9164 17.5631 14.27C17.2441 13.9386 16.5931 13.4337 15.4427 12.6107C15.0903 12.2957 14.6726 12.364 14.2896 12.6152C14.1053 12.7361 13.9712 12.8584 13.7181 13.1118L13.2583 13.5718C13.1978 13.6324 12.3755 13.2206 11.5774 12.4217C10.7788 11.6223 10.3673 10.8 10.4275 10.7398L10.8876 10.2794C10.9679 10.199 11.0063 10.1601 11.0556 10.1083C11.1582 10.0005 11.2431 9.90265 11.3168 9.80333ZM14.1064 14.4202L14.5663 13.9601C14.7056 13.8207 14.7959 13.7349 14.8694 13.6758C15.8771 14.3995 16.4608 14.8546 16.6992 15.1023C16.8423 15.251 16.8201 15.5224 16.6957 15.6539C16.5235 15.8359 16.2998 16.0597 16.0252 16.3245C14.9344 17.4158 12.0605 16.5867 9.73805 14.2619C7.41486 11.9364 6.5861 9.06213 7.66869 7.97894C7.96969 7.67324 8.06505 7.57792 8.35519 7.29204C8.46397 7.18486 8.76029 7.16079 8.89262 7.29151C9.14886 7.54463 9.62418 8.15324 10.3234 9.12725C10.2872 9.17219 10.242 9.22297 10.187 9.2808C10.1466 9.32324 10.1129 9.35734 10.0394 9.43096L9.57979 9.89082C8.7979 10.6726 9.46379 12.0033 10.7292 13.2699C11.9937 14.5356 13.3248 15.2023 14.1064 14.4202Z" fill="white"/>
</svg>
