<svg width="15" height="15" viewBox="0 0 15 15" fill="none" xmlns="http://www.w3.org/2000/svg">
<path fill-rule="evenodd" clip-rule="evenodd" d="M5.80213 12.3113C2.5977 12.3113 0 9.71365 0 6.50922C0 3.30479 2.5977 0.707092 5.80213 0.707092C9.00655 0.707092 11.6043 3.30479 11.6043 6.50922C11.6043 7.85003 11.1495 9.08461 10.3857 10.0671L14.2929 13.9743L13.2672 15L9.36002 11.0928C8.37752 11.8565 7.14293 12.3113 5.80213 12.3113ZM10.1537 6.50922C10.1537 8.91254 8.20545 10.8608 5.80213 10.8608C3.39881 10.8608 1.45053 8.91254 1.45053 6.50922C1.45053 4.1059 3.39881 2.15762 5.80213 2.15762C8.20545 2.15762 10.1537 4.1059 10.1537 6.50922Z" fill="#FD7A78"/>
</svg>
