<svg width="12" height="12" viewBox="0 0 12 12" fill="none" xmlns="http://www.w3.org/2000/svg">
<path d="M9.64825 7.77889C9.16584 7.77889 8.74373 7.59799 8.44222 7.29648L4.16082 9.76884C4.22112 9.88945 4.22112 10.0704 4.22112 10.191C4.22112 11.2161 3.4372 12 2.41207 12C1.38695 12 0.603027 11.2161 0.603027 10.191C0.603027 9.16583 1.38695 8.38191 2.41207 8.38191C2.89448 8.38191 3.3166 8.56281 3.6181 8.86432L7.89951 6.39196C7.83921 6.27136 7.83921 6.09045 7.83921 5.96985C7.83921 5.84925 7.83921 5.66834 7.89951 5.54774L3.6181 3.01508C3.3166 3.31658 2.89448 3.49749 2.41207 3.49749C1.44725 3.49749 0.663329 2.71357 0.663329 1.74874C0.663329 0.78392 1.44725 1.17855e-07 2.41207 1.17855e-07C3.3769 1.17855e-07 4.16082 0.78392 4.16082 1.74874C4.16082 1.86935 4.16082 1.98995 4.10052 2.17085L8.38192 4.70352C8.68343 4.40201 9.10554 4.22111 9.58795 4.22111C10.6131 4.22111 11.397 5.00503 11.397 6.03015C11.397 7.05528 10.6734 7.77889 9.64825 7.77889Z" fill="white"/>
</svg>
