<svg width="143" height="104" viewBox="0 0 143 104" fill="none" xmlns="http://www.w3.org/2000/svg">
<g clip-path="url(#clip0)">
<path d="M100.39 28.8422C112.19 21.8422 129.19 24.2423 135.29 27.6423C135.99 28.0423 136.89 27.7422 137.29 27.0423C137.69 26.3423 137.39 25.4423 136.69 25.0423C129.09 20.8423 111.19 18.9422 98.7902 26.3422C90.0902 31.4422 85.4902 40.4422 85.4902 52.2423C85.4902 62.5423 88.5902 70.4423 94.6902 75.9423C102.49 82.9423 113.09 83.9423 118.59 83.9423C120.69 83.9423 121.99 83.8422 122.19 83.7422C122.99 83.6423 123.49 83.0422 123.49 82.2422V51.2423C123.49 50.4423 122.79 49.7423 121.99 49.7423C121.19 49.7423 120.49 50.4423 120.49 51.2423V80.8423C116.59 81.0423 104.79 80.8422 96.6902 73.7422C91.2902 68.8422 88.4902 61.6423 88.4902 52.2423C88.4902 41.3423 92.4902 33.4422 100.39 28.8422Z" fill="white"/>
<path d="M28.9902 21.2427H1.99023C1.19023 21.2427 0.490234 21.9427 0.490234 22.7427C0.490234 23.5427 1.19023 24.2427 1.99023 24.2427H27.4902V102.243C27.4902 103.043 28.1902 103.743 28.9902 103.743C29.7902 103.743 30.4902 103.043 30.4902 102.243V22.7427C30.4902 21.9427 29.7902 21.2427 28.9902 21.2427Z" fill="white"/>
<path d="M140.99 49.7425C140.19 49.7425 139.49 50.4425 139.49 51.2425V94.4425C137.09 95.9425 128.39 100.742 116.99 100.742C111.89 100.742 67.4902 99.3425 67.4902 51.2425C67.4902 30.5425 77.8902 18.9425 86.5902 12.8425C100.89 2.84248 122.29 0.14248 138.49 6.14248C139.29 6.44248 140.09 6.04248 140.39 5.24248C140.69 4.44248 140.29 3.64248 139.49 3.34248C133.29 1.04248 126.39 0.0424805 119.39 0.0424805C119.39 0.0424805 119.39 0.0424805 119.29 0.0424805H1.99023C1.19023 0.0424805 0.490234 0.74248 0.490234 1.54248C0.490234 2.34248 1.19023 3.04248 1.99023 3.04248H100.29C94.6902 4.74248 89.4902 7.24248 84.8902 10.4425C81.1902 13.0425 77.1902 16.5425 73.6902 21.2425H49.9902C49.1902 21.2425 48.4902 21.9425 48.4902 22.7425V102.242C48.4902 103.042 49.1902 103.742 49.9902 103.742C50.7902 103.742 51.4902 103.042 51.4902 102.242V24.2425H71.6902C67.4902 31.0425 64.4902 39.8425 64.4902 51.2425C64.4902 92.6425 97.4902 103.742 116.99 103.742C131.29 103.742 141.39 96.7425 141.89 96.4425C142.29 96.1425 142.49 95.7425 142.49 95.2425V51.2425C142.49 50.4425 141.79 49.7425 140.99 49.7425Z" fill="white"/>
</g>
<defs>
<clipPath id="clip0">
<rect width="142" height="103.7" fill="white" transform="translate(0.490234 0.0424805)"/>
</clipPath>
</defs>
</svg>
