<svg width="15" height="17" viewBox="0 0 15 17" fill="none" xmlns="http://www.w3.org/2000/svg">
<path fill-rule="evenodd" clip-rule="evenodd" d="M5.25 0.25H9.75C10.5784 0.25 11.25 0.921573 11.25 1.75V2.5H13.5C14.3284 2.5 15 3.17157 15 4V5.5C15 6.32843 14.3284 7 13.5 7H13.4398L12.7499 15.25C12.7499 16.0784 12.0783 16.75 11.2499 16.75H3.74991C2.92149 16.75 2.24991 16.0784 2.2525 15.3123L1.55981 7H1.5C0.671573 7 0 6.32843 0 5.5V4C0 3.17157 0.671573 2.5 1.5 2.5H3.75V1.75C3.75 0.921573 4.42157 0.25 5.25 0.25ZM1.5 4H3.75H11.25H13.5V5.5H1.5V4ZM3.06482 7H11.9349L11.2525 15.1877L11.25 15.25H3.74995L3.06482 7ZM9.75 1.75V2.5H5.25V1.75H9.75Z" fill="#FF4949"/>
</svg>
