<svg width="64" height="64" viewBox="0 0 64 64" fill="none" xmlns="http://www.w3.org/2000/svg">
<path d="M0 10C0 4.47715 4.47715 0 10 0H54C59.5228 0 64 4.47715 64 10V54C64 59.5228 59.5228 64 54 64H10C4.47715 64 0 59.5228 0 54V10Z" fill="#5671FF"/>
<g clip-path="url(#clip0)">
<path d="M38.4607 26.8472C41.0986 25.2823 44.8989 25.8189 46.2626 26.5789C46.4191 26.6683 46.6202 26.6013 46.7097 26.4448C46.7991 26.2883 46.732 26.0871 46.5755 25.9977C44.8766 25.0588 40.8751 24.6341 38.1031 26.2883C36.1582 27.4284 35.1299 29.4403 35.1299 32.0782C35.1299 34.3807 35.8229 36.1468 37.1865 37.3763C38.9302 38.9411 41.2998 39.1647 42.5293 39.1647C42.9988 39.1647 43.2894 39.1423 43.3341 39.12C43.5129 39.0976 43.6247 38.9635 43.6247 38.7846V31.8547C43.6247 31.6758 43.4682 31.5193 43.2894 31.5193C43.1105 31.5193 42.9541 31.6758 42.9541 31.8547V38.4717C42.0822 38.5164 39.4444 38.4717 37.6336 36.8845C36.4265 35.7891 35.8005 34.1796 35.8005 32.0782C35.8005 29.6415 36.6947 27.8755 38.4607 26.8472Z" fill="white"/>
<path d="M22.499 25.1484H16.4633C16.2844 25.1484 16.1279 25.3049 16.1279 25.4838C16.1279 25.6626 16.2844 25.8191 16.4633 25.8191H22.1637V43.2558C22.1637 43.4347 22.3202 43.5911 22.499 43.5911C22.6779 43.5911 22.8344 43.4347 22.8344 43.2558V25.4838C22.8344 25.3049 22.6779 25.1484 22.499 25.1484Z" fill="white"/>
<path d="M47.5364 31.5195C47.3576 31.5195 47.2011 31.676 47.2011 31.8548V41.5121C46.6646 41.8474 44.7197 42.9205 42.1713 42.9205C41.0312 42.9205 31.1056 42.6075 31.1056 31.8548C31.1056 27.2274 33.4305 24.6342 35.3754 23.2706C38.5721 21.0351 43.3561 20.4315 46.9775 21.7728C47.1564 21.8399 47.3352 21.7505 47.4023 21.5716C47.4693 21.3928 47.3799 21.214 47.2011 21.1469C45.8151 20.6327 44.2726 20.4092 42.7078 20.4092C42.7078 20.4092 42.7078 20.4092 42.6854 20.4092H16.4633C16.2844 20.4092 16.1279 20.5657 16.1279 20.7445C16.1279 20.9233 16.2844 21.0798 16.4633 21.0798H38.438C37.1861 21.4599 36.0237 22.0187 34.9954 22.7341C34.1682 23.3153 33.2741 24.0977 32.4916 25.1484H27.1936C27.0147 25.1484 26.8582 25.3049 26.8582 25.4837V43.2558C26.8582 43.4346 27.0147 43.5911 27.1936 43.5911C27.3724 43.5911 27.5289 43.4346 27.5289 43.2558V25.819H32.0445C31.1056 27.3392 30.435 29.3064 30.435 31.8548C30.435 41.1097 37.8121 43.5911 42.1713 43.5911C45.368 43.5911 47.6258 42.0263 47.7376 41.9592C47.827 41.8921 47.8717 41.8027 47.8717 41.6909V31.8548C47.8717 31.676 47.7152 31.5195 47.5364 31.5195Z" fill="white"/>
</g>
<defs>
<clipPath id="clip0">
<rect width="31.7438" height="23.1819" fill="white" transform="translate(16.1279 20.4092)"/>
</clipPath>
</defs>
</svg>
